Coordinates
version=1
nRows=9
nColumns=24
inDegrees=yes

Units are S.I. units (second, meters, Newtons, ...)
If the header above contains a line with 'inDegrees', this indicates whether rotational values are in degrees (yes) or radians (no).

endheader
time	pelvis_tilt	pelvis_list	pelvis_rotation	pelvis_tx	pelvis_ty	pelvis_tz	hip_flexion_r	hip_adduction_r	hip_rotation_r	knee_angle_r	ankle_angle_r	subtalar_angle_r	mtp_angle_r	hip_flexion_l	hip_adduction_l	hip_rotation_l	knee_angle_l	ankle_angle_l	subtalar_angle_l	mtp_angle_l	lumbar_extension	lumbar_bending	lumbar_rotation
      1.04666667	     10.90205828	      4.19540474	      2.04500528	     -0.12209203	      0.73378161	      0.27394829	     24.05146754	     -7.04405438	     -8.86186405	    -39.53363604	      7.75316995	     -8.23682172	      0.00000000	    -14.09567083	      5.96260411	     -4.04141378	    -13.96588887	     18.12655978	     -5.98417727	      0.00000000	      0.00000000	      0.00000000	      0.00000000
      1.05333333	     10.49804470	      4.42874064	      2.37565088	     -0.11479269	      0.73234137	      0.27375341	     24.11107138	     -7.28092064	     -9.54968679	    -36.60742970	      8.49885348	     -6.87421308	      0.00000000	    -14.21094634	      6.10319543	     -3.72277164	    -14.15528010	     18.52241661	     -5.85451756	      0.00000000	      0.00000000	      0.00000000	      0.00000000
      1.06000000	     10.01227623	      4.51971080	      2.64532844	     -0.10747223	      0.73085771	      0.27375410	     24.16849463	     -7.24433233	    -10.13494873	    -33.51366191	      8.85579008	     -5.99172246	      0.00000000	    -14.19729933	      6.09981349	     -3.53882656	    -14.40759099	     18.83439203	     -5.89199216	      0.00000000	      0.00000000	      0.00000000	      0.00000000
      1.06666667	      9.52017250	      4.61650736	      2.93348538	     -0.10008236	      0.72934852	      0.27374592	     24.19763000	     -7.23886646	    -10.86387676	    -30.46971864	      9.31323763	     -4.81920820	      0.00000000	    -14.18115323	      6.09248329	     -3.32851826	    -14.66875194	     19.19358995	     -5.79288674	      0.00000000	      0.00000000	      0.00000000	      0.00000000
      1.07333333	      9.03251044	      4.67210731	      3.18387870	     -0.09260023	      0.72779406	      0.27382174	     24.19910298	     -7.14834161	    -11.61348676	    -27.47674828	      9.70912071	     -3.59456276	      0.00000000	    -14.14957070	      6.03984375	     -3.20060044	    -14.97962925	     19.53245516	     -5.69455546	      0.00000000	      0.00000000	      0.00000000	      0.00000000
      1.08000000	      8.50951304	      4.84293713	      3.19550118	     -0.08510959	      0.72612083	      0.27416749	     24.31824704	     -7.00321450	    -11.86169430	    -24.63853513	      9.91049421	     -2.77769937	      0.00000000	    -14.15628662	      6.18869058	     -3.13827535	    -15.16070083	     19.72942108	     -5.67713444	      0.00000000	      0.00000000	      0.00000000	      0.00000000
      1.08666667	      8.13986741	      4.70742176	      3.69238945	     -0.07734149	      0.72471724	      0.27410410	     24.08734010	     -6.84418501	    -13.34582956	    -21.88581480	     10.47787119	     -0.89401010	      0.00000000	    -14.15909918	      5.81790135	     -2.98387189	    -15.67827966	     20.28485238	     -5.21146715	      0.00000000	      0.00000000	      0.00000000	      0.00000000
      1.09333333	      7.68527416	      4.67002573	      3.81898351	     -0.06953717	      0.72311578	      0.27443163	     24.06227798	     -6.51858198	    -13.97973009	    -19.34108103	     10.59423949	      0.15746435	      0.00000000	    -14.12461609	      5.66460208	     -3.04744790	    -16.10005269	     20.50976685	     -5.18312434	      0.00000000	      0.00000000	      0.00000000	      0.00000000
      1.10000000	      7.31094037	      4.60964636	      4.05582029	     -0.06160919	      0.72160347	      0.27476708	     23.97957377	     -6.21232257	    -14.79739792	    -17.11980074	     10.82366665	      1.32679816	      0.00000000	    -14.18379674	      5.43029228	     -2.99971233	    -16.52370827	     20.84467759	     -4.86241055	      0.00000000	      0.00000000	      0.00000000	      0.00000000
